<svg xmlns="http://www.w3.org/2000/svg" width="480" height="480" viewBox="0 0 48 48"><path fill="#3e2723" d="M8 31.789c0-3.967 3.431-6.508 7.558-7.183C23.75 23.267 28 22.727 19 38.919c-.848 1.177-2.044 1.079-2.904 1.079C11 39.998 8 35.756 8 31.789z"/><path fill="#3e2723" d="M40 31.789c0-3.967-3.415-6.508-7.524-7.183-8.154-1.339-12.385-1.879-3.426 14.312.844 1.177 2.034 1.079 2.891 1.079 5.073.001 8.059-4.241 8.059-8.208z"/><path fill="#4e342e" d="M23 24.462S30.436 7 42.098 7c1.351 0 3.742 1.462-.508 7.191-1.667 2.247-1.167 1.075-1.859 7.191-.465 4.109-6.797 3.715-8.71 3.488-1.751-.208-3.502-.408-5.263-.408H23z"/><path fill="#4e342e" d="M25 24.462S17.564 7 5.902 7c-1.351 0-3.742 1.462.508 7.191 1.667 2.247 1.167 1.075 1.859 7.191.465 4.109 6.797 3.715 8.71 3.488 1.751-.208 3.502-.408 5.263-.408H25z"/><path fill="#ffb300" d="M37 9.727c0 .402.871 1.273 1.273 1.273S39 10.129 39 9.727c0-.401-.326-.727-.727-.727S37 9.326 37 9.727zm-2 1.13c0 .316.542 1.143.857 1.143.316 0 1.143-.684 1.143-1s-.827-1-1.143-1c-.315 0-.857.542-.857.857zm-24-1.13C11 10.129 10.129 11 9.727 11 9.326 11 9 10.129 9 9.727 9 9.326 9.326 9 9.727 9c.402 0 1.273.326 1.273.727zm2 1.13c0 .316-.542 1.143-.857 1.143-.316 0-1.143-.684-1.143-1s.827-1 1.143-1c.315 0 .857.542.857.857z"/><path fill="#fb8c00" d="M21.01 25.01s-2.844 1.193-5.251.774c-2.792-.486-2.245 1.746 1.532 1.097 3.938-.678 3.719-1.871 3.719-1.871zm1.286 2.464c1.75 2.669-4.017 10.398-4.529 10.945-.513.547-2.028.766-2.516.245s-.193-1.774.5-2.001c3.249-1.068 6.258-9.626 6.545-9.189zM27 22s.619 2.722 6.434 1.815C39.249 22.907 27 22 27 22zm.049 3.01s2.831 1.193 5.227.774c2.779-.486 2.235 1.746-1.525 1.097-3.919-.678-3.702-1.871-3.702-1.871zm-1.279 2.464c-1.742 2.669 3.999 10.398 4.509 10.945.51.547 2.019.766 2.505.245.486-.521.192-1.774-.498-2.001-3.236-1.068-6.231-9.626-6.516-9.189zM21 22s-.619 2.722-6.434 1.815C8.751 22.907 21 22 21 22z"/><path fill="#e65100" d="M34 17.25s2.942.735 3.556.735c.614 0 1.444-.841 1.444-1.389S38.169 16 37.556 16C36.942 16 34 17.25 34 17.25zm-12.01 8.858c.306-.681-6.254 2.002-5.411 3.975.17.397.408.568-.817 1.363-1.225.795-1.123 2.385 1.429 1.022s3.83-4.205 4.799-6.36zm-6.986 3.976c.121.166-1.462 1.798-1.752 2.3-1.957 3.381-4.245.521-4.248-.05-.004-.959 2.609-.708 3-1.125.391-.417 2.61-1.542 3-1.125zM17.917 33c.625 0-2.39 4.043-5.408 4.976-.606.188-1.509-.782-1.509-1.555s.884-1.555 1.509-1.555c3.019 0 4.779-1.866 5.408-1.866zM16 27.823c0 .482-1.647 1.455-2.695 1.455s-2.495 2.91-3.293 1.164c-.183-.401 1.796-4.075 2.595-3.347.888.809 3.393.245 3.393.728zm10.074-1.715c-.305-.681 6.226 2.002 5.387 3.975-.169.397-.407.568.813 1.363s1.118 2.385-1.423 1.022c-2.541-1.363-3.812-4.205-4.777-6.36zm6.954 3.976c-.12.166 1.455 1.798 1.744 2.3 1.948 3.381 4.226.521 4.228-.05.004-.959-2.598-.708-2.986-1.125-.389-.417-2.597-1.542-2.986-1.125zM30.128 33c-.622 0 2.379 4.043 5.383 4.976.604.187 1.502-.782 1.502-1.555s-.88-1.555-1.502-1.555c-3.004 0-4.757-1.866-5.383-1.866zm1.909-5.177c0 .482 1.64 1.455 2.682 1.455s2.484 2.91 3.278 1.164c.183-.401-1.788-4.075-2.583-3.347-.884.809-3.377.245-3.377.728zM26 20s4.556-5.723 6.429-7.223c1.987-1.592 2.571-.245 2.571-.245l-.234 2.081C34.603 16.07 31.511 17.08 26 20zm0 1.221 6.509-3.193s5.909-.48 5.467 2.555c-.13.894.13 1.277-3.124 1.405S26 21.221 26 21.221zm10.594-8.412c-.385.603-1.219 2.816-1.219 2.816s2.58-.341 3.165-.759c.651-.465 1.97-1.174 1.224-2.1-.586-.728-2.478-1.04-3.17.043zM39 8.573c0 .362 1.944.409 2.533.409S43 9.098 43 8.737 42.122 8 41.533 8 39 8.211 39 8.573zm0 2.413c0 .726.566.986 1.263.986.698 0 1.737.233 1.737-.493S40.961 10 40.263 10c-.697 0-1.263.26-1.263.986zM14 17.25s-2.942.735-3.556.735c-.613 0-1.444-.842-1.444-1.39S9.831 16 10.444 16C11.058 16 14 17.25 14 17.25zM22 20s-4.556-5.723-6.429-7.223C13.584 11.185 13 12.532 13 12.532l.234 2.081C13.397 16.07 16.489 17.08 22 20zm0 1.221-6.509-3.193s-5.909-.48-5.467 2.555c.13.894-.13 1.277 3.124 1.405S22 21.221 22 21.221zm-10.594-8.412c.385.603 1.219 2.816 1.219 2.816s-2.58-.341-3.165-.759c-.651-.465-1.97-1.174-1.224-2.1.586-.728 2.478-1.04 3.17.043zM9 8.573c0 .362-1.944.409-2.533.409S5 9.098 5 8.737 5.878 8 6.467 8 9 8.211 9 8.573zm0 2.413c0 .726-.566.986-1.263.986S6 12.204 6 11.478 7.039 10 7.737 10 9 10.26 9 10.986z"/><path fill="#212121" d="M26 22.831c0-.895-.602-1.992-1.146-2.801.091-.202.146-.436.146-.689 0-.741-.448-1.342-1-1.342s-1 .601-1 1.342c0 .253.055.487.146.689-.544.809-1.146 1.906-1.146 2.801 0 1.248.525 4.039 1.267 5.282A228.874 228.874 0 0 0 23 34.104c0 .494.448.895 1 .895s1-.401 1-.895c0-.235-.101-3.075-.267-5.991.742-1.244 1.267-4.034 1.267-5.282z"/></svg>